<svg height='100px' width='100px'  fill="#3030b6" xmlns="http://www.w3.org/2000/svg" xmlns:xlink="http://www.w3.org/1999/xlink" version="1.1" x="0px" y="0px" viewBox="0 0 100 100" enable-background="new 0 0 100 100" xml:space="preserve"><circle cx="76.495" cy="31.313" r="13.968"></circle><path d="M77.009,51.509c-0.179,0-0.342,0-0.521,0.014v-0.014c-15.242,0-20.705-6.59-30.613-10.509c3.661-3.5,3.974-6.715,3.974-9.68  c0-7.717-6.258-13.975-13.976-13.975c-7.717,0-13.959,6.258-13.959,13.975c0,3.009,0.961,6.805,4.461,9.805  c-9.968,3.8-19.405,10.726-21.699,21.349v1.624c0,3.56,2.89,6.451,6.451,6.451c1.922,0,3.65-0.85,4.842-2.19v13.796h2.979V62.122  c0.03-0.403,1.103-9.997,16.925-9.997c15.718,0,15.912,10.25,15.912,10.25v19.779h42.61V63.248  C94.396,63.248,94.531,51.509,77.009,51.509z M44.321,38.323c-1.997,2.428-5.05,3.978-8.448,3.978c-3.352,0-6.376-1.52-8.373-3.904  c-1.625-1.922-2.607-4.38-2.607-7.077c0-6.064,4.931-10.995,10.979-10.995c6.064,0,10.996,4.931,10.996,10.995  C46.87,33.973,45.916,36.416,44.321,38.323z"></path></svg>