<svg height='100px' width='100px'  fill="#3030b6" xmlns="http://www.w3.org/2000/svg" xmlns:xlink="http://www.w3.org/1999/xlink" version="1.1" x="0px" y="0px" viewBox="0 0 52 52" style="enable-background:new 0 0 52 52;" xml:space="preserve"><g><path d="M27.1,32.4v-4.7c0-0.6-0.5-1.1-1.1-1.1c-0.6,0-1.1,0.5-1.1,1.1v4.7L20,37.3c-0.4,0.4-0.4,1.1,0,1.5c0.4,0.4,1.1,0.4,1.5,0   l4.5-4.5l4.5,4.5c0.4,0.4,1.1,0.4,1.5,0c0.4-0.4,0.4-1.1,0-1.5L27.1,32.4z"></path><circle cx="26" cy="9.8" r="5.5"></circle><circle cx="9.8" cy="33.5" r="5.5"></circle><circle cx="42.1" cy="33.5" r="5.5"></circle><path d="M31,15.5c-2.9,2.5-7.1,2.5-10,0c-2.9,1.7-4.8,4.9-4.8,8.5h19.7C35.8,20.4,33.9,17.2,31,15.5z"></path><path d="M14.8,39.3c-2.9,2.5-7.1,2.5-10,0C1.9,41,0,44.2,0,47.8h19.7C19.7,44.1,17.7,41,14.8,39.3z"></path><path d="M47.1,39.3c-2.9,2.5-7.1,2.5-10,0c-2.9,1.7-4.8,4.9-4.8,8.5H52C52,44.1,50,41,47.1,39.3z"></path></g></svg>